Coordinates
version=1
nRows=41
nColumns=38
inDegrees=no

Units are S.I. units (second, meters, Newtons, ...)
If the header above contains a line with 'inDegrees', this indicates whether rotational values are in degrees (yes) or radians (no).

endheader
time	pelvis_tilt	pelvis_list	pelvis_rotation	pelvis_tx	pelvis_ty	pelvis_tz	hip_flexion_r	hip_adduction_r	hip_rotation_r	knee_angle_r	ankle_angle_r	subtalar_angle_r	mtp_angle_r	hip_flexion_l	hip_adduction_l	hip_rotation_l	knee_angle_l	ankle_angle_l	subtalar_angle_l	mtp_angle_l	lumbar_extension	lumbar_bending	lumbar_rotation	arm_flex_r	arm_add_r	arm_rot_r	elbow_flex_r	pro_sup_r	wrist_flex_r	wrist_dev_r	arm_flex_l	arm_add_l	arm_rot_l	elbow_flex_l	pro_sup_l	wrist_flex_l	wrist_dev_l
1.06	-2.87035	1.37999	-1.77476	0.59647	1.28529	1.06549	0.28574	-0.0553176	0.0106436	0.950066	-0.137989	0	0	-0.268181	0.107162	-0.240092	0.231087	-0.173955	0	0	-0.329416	-0.058276	-0.16221	-0.222996	-0.205102	-0.163592	0.5958	0.464847	0	0	0.0580825	-0.734602	0.499359	0.888588	1.14795	0	0
1.07	-2.85884	1.38448	-1.78312	0.595492	1.29491	1.0645	0.298529	-0.0610766	-0.00276417	0.911029	-0.133765	0	0	-0.277908	0.108834	-0.235149	0.22178	-0.172806	0	0	-0.322454	-0.0586454	-0.166351	-0.22714	-0.218222	-0.12	0.602339	0.42173	0	0	0.0679788	-0.748137	0.50124	0.902151	1.14435	0	0
1.08	-2.84346	1.38932	-1.79602	0.594548	1.30463	1.06332	0.311496	-0.0680769	-0.0191788	0.872049	-0.130621	0	0	-0.287028	0.111138	-0.23037	0.213123	-0.170641	0	0	-0.316458	-0.0591052	-0.16622	-0.231574	-0.215506	-0.129416	0.607183	0.431159	0	0	0.0820959	-0.759251	0.505174	0.914154	1.14379	0	0
1.09	-2.82563	1.3946	-1.81187	0.593659	1.31448	1.06196	0.324851	-0.0754706	-0.0393188	0.833666	-0.127999	0	0	-0.294878	0.1134	-0.227105	0.206575	-0.16773	0	0	-0.308943	-0.060051	-0.167109	-0.23493	-0.213861	-0.135199	0.61069	0.438738	0	0	0.0929607	-0.769321	0.505805	0.925365	1.14376	0	0
1.1	-2.80881	1.3986	-1.82678	0.592784	1.32434	1.06061	0.336579	-0.0828562	-0.0644377	0.795759	-0.122364	0	0	-0.304256	0.116085	-0.222634	0.198766	-0.16542	0	0	-0.303121	-0.0607411	-0.167602	-0.238581	-0.216048	-0.129762	0.615667	0.432203	0	0	0.10473	-0.779375	0.508984	0.935972	1.1432	0	0
1.11	-2.79246	1.40214	-1.84135	0.59195	1.33423	1.05921	0.347514	-0.0898754	-0.0935722	0.758179	-0.115178	0	0	-0.313711	0.118504	-0.217945	0.191694	-0.163294	0	0	-0.298068	-0.0611176	-0.167359	-0.241954	-0.218067	-0.125356	0.620442	0.427053	0	0	0.117069	-0.788149	0.512893	0.945207	1.14311	0	0
1.12	-2.77743	1.40514	-1.85488	0.591174	1.34412	1.05778	0.357385	-0.0961866	-0.125736	0.721257	-0.106414	0	0	-0.323546	0.12068	-0.212296	0.184857	-0.161236	0	0	-0.296304	-0.0604099	-0.161171	-0.246634	-0.203606	-0.176037	0.625669	0.475243	0	0	0.137669	-0.793788	0.522941	0.951901	1.14639	0	0
1.13	-2.76555	1.40828	-1.86553	0.590419	1.35402	1.05628	0.366457	-0.101235	-0.159269	0.685595	-0.100928	0	0	-0.332107	0.121892	-0.209416	0.181024	-0.157393	0	0	-0.291792	-0.0597419	-0.160945	-0.249464	-0.215232	-0.143922	0.631313	0.439051	0	0	0.148647	-0.80073	0.526481	0.958556	1.14715	0	0
1.14	-2.75465	1.41226	-1.87481	0.589676	1.36394	1.05471	0.374837	-0.105102	-0.191862	0.651281	-0.0978113	0	0	-0.338506	0.122031	-0.208729	0.180359	-0.153136	0	0	-0.287845	-0.0580848	-0.158509	-0.251007	-0.214725	-0.14997	0.634036	0.445153	0	0	0.162457	-0.805702	0.532256	0.963588	1.14936	0	0
1.15	-2.74437	1.41686	-1.88322	0.589013	1.37389	1.05309	0.382268	-0.107786	-0.221525	0.619024	-0.0948659	0	0	-0.343527	0.121334	-0.208085	0.181474	-0.149945	0	0	-0.282699	-0.0562157	-0.157783	-0.250024	-0.214857	-0.152632	0.633671	0.44991	0	0	0.173879	-0.811093	0.538455	0.967846	1.14747	0	0
1.16	-2.74049	1.42059	-1.88477	0.58841	1.38381	1.05155	0.386991	-0.108956	-0.247688	0.589323	-0.0918495	0	0	-0.349351	0.119389	-0.206542	0.183504	-0.145357	0	0	-0.279591	-0.0531278	-0.156607	-0.248899	-0.217942	-0.147307	0.634133	0.443054	0	0	0.185069	-0.814531	0.54246	0.97093	1.14827	0	0
1.17	-2.74137	1.42355	-1.88107	0.587887	1.39378	1.05012	0.389703	-0.108574	-0.268764	0.563327	-0.0873052	0	0	-0.355621	0.11639	-0.20558	0.186648	-0.140836	0	0	-0.27768	-0.0494807	-0.156144	-0.246555	-0.220832	-0.141966	0.63307	0.437907	0	0	0.19478	-0.81738	0.545231	0.973328	1.14907	0	0
1.18	-2.74752	1.42544	-1.87141	0.587397	1.40384	1.04881	0.390162	-0.106515	-0.284404	0.541442	-0.080345	0	0	-0.362794	0.112347	-0.205305	0.19065	-0.135674	0	0	-0.279009	-0.0446905	-0.152797	-0.244093	-0.209129	-0.182485	0.630606	0.482624	0	0	0.207268	-0.817131	0.54745	0.974518	1.15481	0	0
1.19	-2.75968	1.42602	-1.85515	0.586863	1.41396	1.04763	0.388105	-0.103083	-0.295247	0.523724	-0.0721241	0	0	-0.370863	0.107314	-0.206081	0.196181	-0.130375	0	0	-0.278574	-0.0400059	-0.157897	-0.239463	-0.225344	-0.134008	0.628634	0.435259	0	0	0.207398	-0.820263	0.542317	0.977038	1.15416	0	0
1.2	-2.77184	1.42611	-1.83845	0.586315	1.42419	1.04652	0.384793	-0.0994931	-0.301846	0.5107	-0.0658908	0	0	-0.378968	0.102157	-0.20683	0.202766	-0.126517	0	0	-0.28059	-0.0346062	-0.159134	-0.235688	-0.224991	-0.137833	0.625978	0.439486	0	0	0.213042	-0.821461	0.543024	0.978264	1.15394	0	0
1.21	-2.7839	1.42609	-1.82197	0.585797	1.43458	1.04544	0.380411	-0.0956075	-0.304329	0.501642	-0.0614046	0	0	-0.386752	0.0970267	-0.20863	0.21031	-0.123344	0	0	-0.282643	-0.0290692	-0.160148	-0.232172	-0.224	-0.143604	0.623252	0.443759	0	0	0.216971	-0.822083	0.543223	0.979252	1.1539	0	0
1.22	-2.79069	1.42722	-1.81093	0.58535	1.44521	1.04427	0.376633	-0.0918545	-0.302847	0.497229	-0.0604669	0	0	-0.393486	0.0925977	-0.209018	0.216991	-0.123177	0	0	-0.282939	-0.0240872	-0.160405	-0.230117	-0.220914	-0.155426	0.620727	0.455878	0	0	0.220755	-0.822921	0.547252	0.979773	1.15111	0	0
1.23	-2.80129	1.4277	-1.79638	0.584992	1.45599	1.04317	0.370768	-0.0870656	-0.298544	0.496115	-0.0603642	0	0	-0.400338	0.0872521	-0.21184	0.225612	-0.120555	0	0	-0.283469	-0.0189042	-0.161995	-0.22866	-0.222749	-0.15173	0.619838	0.449635	0	0	0.218662	-0.823138	0.54438	0.981007	1.15119	0	0
1.24	-2.81201	1.4284	-1.78222	0.584766	1.46701	1.0421	0.364423	-0.0814844	-0.291591	0.499204	-0.0622666	0	0	-0.406682	0.0815877	-0.215245	0.235147	-0.118174	0	0	-0.283412	-0.0138015	-0.163093	-0.228128	-0.223925	-0.149925	0.619375	0.442236	0	0	0.214336	-0.822975	0.540721	0.982161	1.15161	0	0
1.25	-2.82396	1.42909	-1.76723	0.584672	1.47825	1.04103	0.357359	-0.0751503	-0.282631	0.506257	-0.0659848	0	0	-0.411764	0.0751573	-0.221629	0.248056	-0.11467	0	0	-0.284836	-0.00805895	-0.159988	-0.230025	-0.212593	-0.189345	0.620391	0.472675	0	0	0.212354	-0.820062	0.537569	0.982687	1.15595	0	0
1.26	-2.83482	1.43053	-1.75345	0.584679	1.48978	1.03993	0.349923	-0.067929	-0.272357	0.516094	-0.070059	0	0	-0.415858	0.0683217	-0.227129	0.261911	-0.113031	0	0	-0.282257	-0.00319043	-0.162201	-0.231396	-0.219843	-0.167366	0.620468	0.443162	0	0	0.201328	-0.819926	0.531672	0.983687	1.15522	0	0
1.27	-2.84595	1.43189	-1.73926	0.584773	1.50159	1.0389	0.341208	-0.0602681	-0.262553	0.526473	-0.0736048	0	0	-0.42029	0.0614303	-0.229874	0.274843	-0.113947	0	0	-0.280258	0.00189019	-0.161887	-0.233197	-0.216614	-0.178794	0.618794	0.450658	0	0	0.19266	-0.818258	0.529265	0.983415	1.15611	0	0
1.28	-2.86143	1.43298	-1.72108	0.584934	1.51356	1.03805	0.333551	-0.0533449	-0.256169	0.536231	-0.0802046	0	0	-0.423774	0.0534332	-0.234626	0.29099	-0.11429	0	0	-0.277687	0.00735926	-0.162578	-0.234351	-0.217977	-0.174706	0.6159	0.440873	0	0	0.180209	-0.815977	0.524228	0.982186	1.15744	0	0
1.29	-2.88487	1.43287	-1.69533	0.585118	1.52551	1.03765	0.327744	-0.0482189	-0.254255	0.542164	-0.0852518	0	0	-0.427531	0.0443806	-0.239214	0.309183	-0.116161	0	0	-0.276674	0.0139561	-0.162887	-0.233977	-0.21918	-0.171442	0.611005	0.433213	0	0	0.167471	-0.812122	0.519254	0.978887	1.15857	0	0
1.3	-2.91584	1.43158	-1.66265	0.585306	1.53747	1.03776	0.321304	-0.042784	-0.254153	0.541988	-0.0888289	0	0	-0.431013	0.0341508	-0.244117	0.330556	-0.11978	0	0	-0.277036	0.0216734	-0.162597	-0.232427	-0.220535	-0.168655	0.604433	0.427683	0	0	0.154037	-0.806175	0.513499	0.973378	1.15882	0	0
1.31	-2.95134	1.43025	-1.62646	0.585476	1.54952	1.03829	0.313238	-0.0356693	-0.252813	0.540109	-0.101654	0	0	-0.432363	0.0231847	-0.25068	0.356115	-0.125685	0	0	-0.279129	0.0307435	-0.1574	-0.229321	-0.202182	-0.233252	0.5947	0.49467	0	0	0.143875	-0.79556	0.50754	0.965401	1.16324	0	0
1.32	-2.99013	1.43009	-1.58909	0.585744	1.56167	1.03909	0.305356	-0.0270915	-0.247486	0.542336	-0.128069	0	0	-0.430072	0.0123394	-0.259087	0.386116	-0.133731	0	0	-0.273367	0.038377	-0.165418	-0.224322	-0.233632	-0.1283	0.584851	0.393036	0	0	0.10788	-0.78551	0.475876	0.958406	1.16907	0	0
1.33	-3.0281	1.43067	-1.55461	0.586259	1.57384	1.0401	0.299057	-0.018447	-0.237941	0.54953	-0.142439	0	0	-0.424702	0.00248187	-0.266567	0.419523	-0.143022	0	0	-0.271065	0.0466226	-0.162427	-0.221606	-0.23487	-0.127524	0.575975	0.393516	0	0	0.0869856	-0.774375	0.463251	0.949319	1.16958	0	0
1.34	-3.0638	1.43187	-1.52384	0.58699	1.58601	1.04123	0.294026	-0.00972529	-0.224068	0.557253	-0.148138	0	0	-0.416025	-0.00670933	-0.272638	0.45693	-0.153612	0	0	-0.268318	0.0541352	-0.158721	-0.219472	-0.235817	-0.12812	0.568192	0.394434	0	0	0.0646614	-0.763017	0.45036	0.940054	1.1691	0	0
1.35	-3.09589	1.43393	-1.49716	0.58793	1.59816	1.0424	0.289363	-0.000814896	-0.206624	0.563814	-0.151106	0	0	-0.40322	-0.0159265	-0.277778	0.499147	-0.166928	0	0	-0.264636	0.0605904	-0.155079	-0.217887	-0.236125	-0.130072	0.560858	0.397052	0	0	0.0413232	-0.751833	0.437979	0.930866	1.16799	0	0
1.36	-3.12428	1.43569	-1.47362	0.588998	1.61022	1.04364	0.283021	0.00778816	-0.19074	0.569271	-0.15098	0	0	-0.387547	-0.0252252	-0.28058	0.544521	-0.183085	0	0	-0.261598	0.0662486	-0.151717	-0.216916	-0.235517	-0.134139	0.554301	0.400838	0	0	0.0187688	-0.741265	0.428218	0.921858	1.1656	0	0
1.37	3.12753	1.43641	-1.44616	0.590047	1.62211	1.04501	0.274169	0.0159313	-0.180681	0.572312	-0.149402	0	0	-0.36983	-0.0346051	-0.279327	0.592507	-0.20082	0	0	-0.26021	0.0718915	-0.148237	-0.216442	-0.234169	-0.14088	0.549227	0.405211	0	0	-0.00224553	-0.731332	0.420486	0.912774	1.16231	0	0
1.38	3.10564	1.43746	-1.42634	0.591214	1.63383	1.0462	0.265353	0.0231192	-0.178319	0.572546	-0.14751	0	0	-0.3491	-0.0449075	-0.274684	0.643653	-0.222993	0	0	-0.258332	0.0770811	-0.146296	-0.216083	-0.233944	-0.142749	0.543787	0.404806	0	0	-0.0143069	-0.729953	0.444197	0.904543	1.12844	0	0
1.39	3.07811	1.43799	-1.39984	0.592204	1.64525	1.04736	0.254935	0.0294686	-0.183455	0.569594	-0.146659	0	0	-0.326102	-0.0548204	-0.265543	0.697835	-0.239992	0	0	-0.257338	0.0826696	-0.147213	-0.215218	-0.238006	-0.129592	0.541148	0.389506	0	0	-0.0427941	-0.712607	0.412612	0.895842	1.14635	0	0
1.4	3.05512	1.43855	-1.37656	0.593142	1.65625	1.04832	0.243925	0.0343437	-0.192783	0.565101	-0.143761	0	0	-0.300235	-0.0637337	-0.252925	0.755256	-0.2558	0	0	-0.257148	0.0876336	-0.147202	-0.214865	-0.239728	-0.124885	0.539675	0.381844	0	0	-0.0593013	-0.705362	0.41558	0.888025	1.13436	0	0
1.41	3.03692	1.43956	-1.35839	0.594169	1.66687	1.04912	0.233691	0.0386239	-0.200981	0.561567	-0.139305	0	0	-0.27213	-0.0706786	-0.237552	0.814546	-0.267595	0	0	-0.257605	0.0915849	-0.145334	-0.214873	-0.241399	-0.121241	0.539599	0.375337	0	0	-0.0721089	-0.698886	0.423931	0.879879	1.1229	0	0
1.42	3.02439	1.44099	-1.34649	0.595262	1.67716	1.04982	0.224608	0.042441	-0.206412	0.559901	-0.133675	0	0	-0.242231	-0.0761136	-0.222523	0.874317	-0.275284	0	0	-0.25848	0.0942636	-0.141786	-0.214661	-0.242941	-0.118151	0.539776	0.370254	0	0	-0.0816674	-0.693276	0.437138	0.871143	1.11011	0	0
1.43	3.02121	1.44176	-1.34449	0.5965	1.68707	1.05047	0.215437	0.0454688	-0.209699	0.559704	-0.126386	0	0	-0.212449	-0.0797589	-0.209327	0.931762	-0.273771	0	0	-0.263372	0.0967639	-0.128993	-0.217045	-0.224232	-0.191032	0.540814	0.435729	0	0	-0.0710179	-0.696248	0.489773	0.861909	1.0722	0	0
1.44	3.01899	1.44214	-1.34425	0.597454	1.69704	1.05136	0.205912	0.0482248	-0.21078	0.559921	-0.11726	0	0	-0.183624	-0.0822914	-0.198799	0.98599	-0.252348	0	0	-0.2656	0.0968264	-0.123651	-0.219149	-0.24145	-0.132587	0.545341	0.367957	0	0	-0.0697532	-0.698873	0.537439	0.853239	1.03059	0	0
1.45	3.02865	1.44073	-1.35724	0.598602	1.70685	1.0525	0.19363	0.0501884	-0.209779	0.558159	-0.111937	0	0	-0.157822	-0.0829359	-0.191464	1.03509	-0.229787	0	0	-0.271293	0.0956314	-0.116781	-0.217221	-0.241097	-0.134834	0.544424	0.367698	0	0	-0.0769124	-0.691789	0.549433	0.844004	1.02437	0	0
1.46	3.04692	1.43879	-1.38005	0.599908	1.71663	1.05384	0.180151	0.0513488	-0.207001	0.555111	-0.107196	0	0	-0.133111	-0.0820163	-0.188749	1.07981	-0.207159	0	0	-0.277775	0.0923928	-0.109449	-0.214188	-0.240191	-0.136755	0.541703	0.367677	0	0	-0.0845652	-0.684667	0.560252	0.834415	1.01984	0	0
